<svg xmlns="http://www.w3.org/2000/svg" viewBox="0 0 64 64" fill="none">
  <rect width="64" height="64" rx="18" fill="#214E48"/>
  <path d="M18 16.5C18 14.567 19.567 13 21.5 13H42.5C44.433 13 46 14.567 46 16.5V47.5C46 49.433 44.433 51 42.5 51H21.5C19.567 51 18 49.433 18 47.5V16.5Z" fill="#FFFDF8"/>
  <path d="M24 20.5C24 19.672 24.672 19 25.5 19H38.5C39.328 19 40 19.672 40 20.5C40 21.328 39.328 22 38.5 22H25.5C24.672 22 24 21.328 24 20.5Z" fill="#214E48"/>
  <path d="M24 27.5C24 26.672 24.672 26 25.5 26H38.5C39.328 26 40 26.672 40 27.5C40 28.328 39.328 29 38.5 29H25.5C24.672 29 24 28.328 24 27.5Z" fill="#214E48"/>
  <path d="M24 34.5C24 33.672 24.672 33 25.5 33H34.5C35.328 33 36 33.672 36 34.5C36 35.328 35.328 36 34.5 36H25.5C24.672 36 24 35.328 24 34.5Z" fill="#C56A3D"/>
  <path d="M20 45.5C20 44.672 20.672 44 21.5 44H42.5C43.328 44 44 44.672 44 45.5C44 46.328 43.328 47 42.5 47H21.5C20.672 47 20 46.328 20 45.5Z" fill="#E6DDD2"/>
</svg>
